<svg xmlns="http://www.w3.org/2000/svg" xmlns:xlink="http://www.w3.org/1999/xlink" width="150" zoomAndPan="magnify" viewBox="0 0 112.5 37.5" height="50" preserveAspectRatio="xMidYMid meet" version="1.2"><defs/><g id="540a4b137f"><g style="fill:#ffffff;fill-opacity:1;"><g transform="translate(4.4404, 28.934817)"><path style="stroke:none" d="M 2.578125 0 L 0.3125 -21.0625 L 4.4375 -21.0625 L 5.609375 -7.765625 L 6.796875 -21.0625 L 10.71875 -21.0625 L 11.84375 -7.765625 L 12.96875 -21.0625 L 17.140625 -21.0625 L 14.828125 0 L 9.78125 0 L 8.734375 -10.15625 L 7.71875 0 Z M 2.578125 0 "/></g></g><g style="fill:#ffffff;fill-opacity:1;"><g transform="translate(21.896363, 28.934817)"><path style="stroke:none" d="M 0.9375 0 L 0.9375 -21.0625 L 9.359375 -21.0625 L 9.359375 -16.984375 L 5.21875 -16.984375 L 5.21875 -12.890625 L 9.1875 -12.890625 L 9.1875 -8.921875 L 5.21875 -8.921875 L 5.21875 -4.09375 L 9.640625 -4.09375 L 9.640625 0 Z M 0.9375 0 "/></g></g><g style="fill:#ffffff;fill-opacity:1;"><g transform="translate(31.99729, 28.934817)"><path style="stroke:none" d="M 7.796875 0.203125 C 6.617188 0.203125 5.773438 -0.5 5.265625 -1.90625 L 5.265625 0 L 0.859375 0 L 0.859375 -21.1875 L 5.265625 -21.1875 L 5.265625 -17.09375 C 5.953125 -17.789062 6.753906 -18.140625 7.671875 -18.140625 C 9.054688 -18.140625 10.050781 -17.726562 10.65625 -16.90625 C 11.269531 -16.082031 11.578125 -14.894531 11.578125 -13.34375 L 11.578125 -4.6875 C 11.578125 -3.207031 11.265625 -2.019531 10.640625 -1.125 C 10.015625 -0.238281 9.066406 0.203125 7.796875 0.203125 Z M 6.34375 -3.140625 C 6.644531 -3.140625 6.851562 -3.234375 6.96875 -3.421875 C 7.09375 -3.609375 7.164062 -3.84375 7.1875 -4.125 C 7.21875 -4.414062 7.234375 -4.863281 7.234375 -5.46875 L 7.234375 -12.9375 C 7.234375 -13.582031 7.175781 -14.054688 7.0625 -14.359375 C 6.945312 -14.671875 6.703125 -14.828125 6.328125 -14.828125 C 5.921875 -14.828125 5.640625 -14.671875 5.484375 -14.359375 C 5.335938 -14.054688 5.265625 -13.601562 5.265625 -13 L 5.265625 -5.46875 C 5.265625 -4.6875 5.328125 -4.101562 5.453125 -3.71875 C 5.585938 -3.332031 5.882812 -3.140625 6.34375 -3.140625 Z M 6.34375 -3.140625 "/></g></g><g style="fill:#ffffff;fill-opacity:1;"><g transform="translate(44.280203, 28.934817)"><path style="stroke:none" d="M 0.9375 -21.0625 L 6.734375 -21.0625 C 8.242188 -21.0625 9.375 -20.644531 10.125 -19.8125 C 10.875 -18.976562 11.257812 -17.742188 11.28125 -16.109375 L 11.328125 -6.25 C 11.335938 -4.175781 10.972656 -2.613281 10.234375 -1.5625 C 9.503906 -0.519531 8.289062 0 6.59375 0 L 0.9375 0 Z M 5.90625 -3.71875 C 6.675781 -3.71875 7.0625 -4.097656 7.0625 -4.859375 L 7.0625 -15.71875 C 7.0625 -16.1875 7.023438 -16.539062 6.953125 -16.78125 C 6.878906 -17.019531 6.742188 -17.175781 6.546875 -17.25 C 6.347656 -17.332031 6.046875 -17.375 5.640625 -17.375 L 5.171875 -17.375 L 5.171875 -3.71875 Z M 5.90625 -3.71875 "/></g></g><g style="fill:#ffffff;fill-opacity:1;"><g transform="translate(56.366982, 28.934817)"><path style="stroke:none" d="M 0.9375 0 L 0.9375 -21.0625 L 9.359375 -21.0625 L 9.359375 -16.984375 L 5.21875 -16.984375 L 5.21875 -12.890625 L 9.1875 -12.890625 L 9.1875 -8.921875 L 5.21875 -8.921875 L 5.21875 -4.09375 L 9.640625 -4.09375 L 9.640625 0 Z M 0.9375 0 "/></g></g><g style="fill:#ffffff;fill-opacity:1;"><g transform="translate(66.46791, 28.934817)"><path style="stroke:none" d="M 5.9375 0.203125 C 4.019531 0.203125 2.632812 -0.269531 1.78125 -1.21875 C 0.9375 -2.164062 0.515625 -3.695312 0.515625 -5.8125 L 0.515625 -7.875 L 4.65625 -7.875 L 4.65625 -5.25 C 4.65625 -4.195312 4.988281 -3.671875 5.65625 -3.671875 C 6.039062 -3.671875 6.304688 -3.78125 6.453125 -4 C 6.597656 -4.226562 6.671875 -4.601562 6.671875 -5.125 C 6.671875 -5.8125 6.585938 -6.378906 6.421875 -6.828125 C 6.253906 -7.273438 6.046875 -7.648438 5.796875 -7.953125 C 5.546875 -8.253906 5.09375 -8.722656 4.4375 -9.359375 L 2.625 -11.171875 C 1.21875 -12.546875 0.515625 -14.066406 0.515625 -15.734375 C 0.515625 -17.535156 0.925781 -18.90625 1.75 -19.84375 C 2.570312 -20.78125 3.78125 -21.25 5.375 -21.25 C 7.269531 -21.25 8.632812 -20.742188 9.46875 -19.734375 C 10.300781 -18.734375 10.71875 -17.164062 10.71875 -15.03125 L 6.421875 -15.03125 L 6.40625 -16.46875 C 6.40625 -16.75 6.328125 -16.96875 6.171875 -17.125 C 6.015625 -17.289062 5.796875 -17.375 5.515625 -17.375 C 5.191406 -17.375 4.945312 -17.285156 4.78125 -17.109375 C 4.613281 -16.929688 4.53125 -16.6875 4.53125 -16.375 C 4.53125 -15.6875 4.925781 -14.976562 5.71875 -14.25 L 8.15625 -11.890625 C 8.726562 -11.335938 9.203125 -10.8125 9.578125 -10.3125 C 9.960938 -9.8125 10.265625 -9.222656 10.484375 -8.546875 C 10.710938 -7.867188 10.828125 -7.0625 10.828125 -6.125 C 10.828125 -4.050781 10.445312 -2.476562 9.6875 -1.40625 C 8.9375 -0.332031 7.6875 0.203125 5.9375 0.203125 Z M 5.9375 0.203125 "/></g></g><g style="fill:#194eff;fill-opacity:1;"><g transform="translate(77.771246, 28.934817)"><path style="stroke:none" d="M 0.828125 -19.140625 L 0.828125 -22.140625 L 5.125 -22.140625 L 5.125 -19.140625 Z M 0.828125 0 L 0.828125 -17.953125 L 5.125 -17.953125 L 5.125 0 Z M 0.828125 0 "/></g></g><g style="fill:#ffffff;fill-opacity:1;"><g transform="translate(83.738557, 28.934817)"><path style="stroke:none" d="M 5.265625 0.203125 C 3.742188 0.203125 2.613281 -0.332031 1.875 -1.40625 C 1.132812 -2.476562 0.765625 -4.101562 0.765625 -6.28125 L 0.765625 -15.34375 C 0.765625 -17.289062 1.195312 -18.757812 2.0625 -19.75 C 2.925781 -20.75 4.21875 -21.25 5.9375 -21.25 C 7.320312 -21.25 8.398438 -20.972656 9.171875 -20.421875 C 9.941406 -19.867188 10.472656 -19.0625 10.765625 -18 C 11.054688 -16.9375 11.203125 -15.570312 11.203125 -13.90625 L 7.078125 -13.90625 L 7.078125 -15.78125 C 7.078125 -16.289062 7.007812 -16.679688 6.875 -16.953125 C 6.738281 -17.234375 6.488281 -17.375 6.125 -17.375 C 5.320312 -17.375 4.921875 -16.851562 4.921875 -15.8125 L 4.921875 -5.609375 C 4.921875 -4.972656 5.003906 -4.488281 5.171875 -4.15625 C 5.335938 -3.832031 5.625 -3.671875 6.03125 -3.671875 C 6.4375 -3.671875 6.722656 -3.832031 6.890625 -4.15625 C 7.054688 -4.488281 7.140625 -4.972656 7.140625 -5.609375 L 7.140625 -8.625 L 6 -8.625 L 6 -12.265625 L 11.15625 -12.265625 L 11.15625 0 L 9.46875 0 L 8.75 -1.765625 C 8 -0.453125 6.835938 0.203125 5.265625 0.203125 Z M 5.265625 0.203125 "/></g></g><g style="fill:#ffffff;fill-opacity:1;"><g transform="translate(95.629201, 28.934817)"><path style="stroke:none" d="M 5.953125 0.203125 C 4.253906 0.203125 2.960938 -0.316406 2.078125 -1.359375 C 1.203125 -2.398438 0.765625 -3.859375 0.765625 -5.734375 L 0.765625 -15.765625 C 0.765625 -17.578125 1.203125 -18.941406 2.078125 -19.859375 C 2.960938 -20.785156 4.253906 -21.25 5.953125 -21.25 C 7.648438 -21.25 8.941406 -20.785156 9.828125 -19.859375 C 10.710938 -18.941406 11.15625 -17.578125 11.15625 -15.765625 L 11.15625 -5.734375 C 11.15625 -3.835938 10.710938 -2.375 9.828125 -1.34375 C 8.941406 -0.3125 7.648438 0.203125 5.953125 0.203125 Z M 5.953125 -3.671875 C 6.328125 -3.671875 6.578125 -3.832031 6.703125 -4.15625 C 6.835938 -4.488281 6.90625 -4.953125 6.90625 -5.546875 L 6.90625 -15.84375 C 6.90625 -16.300781 6.84375 -16.671875 6.71875 -16.953125 C 6.601562 -17.234375 6.359375 -17.375 5.984375 -17.375 C 5.273438 -17.375 4.921875 -16.84375 4.921875 -15.78125 L 4.921875 -5.515625 C 4.921875 -4.910156 4.992188 -4.453125 5.140625 -4.140625 C 5.296875 -3.828125 5.566406 -3.671875 5.953125 -3.671875 Z M 5.953125 -3.671875 "/></g></g></g></svg>