<svg xmlns="http://www.w3.org/2000/svg" width="120" height="40" fill="none"><g clip-path="url(#a)"><path fill="#575F75" d="M17.454 8.065c5.84-3.276 14.186-.59 18.641 6.004 4.456 6.594 3.335 14.593-2.503 17.87 4.964-2.785 5.916-9.587 2.129-15.19-3.788-5.604-10.884-7.889-15.845-5.105-4.965 2.787-5.917 9.586-2.132 15.193 3.788 5.603 10.88 7.888 15.845 5.101-5.841 3.28-14.186.59-18.642-6.004-4.452-6.59-3.331-14.593 2.507-17.87z"/><path fill="#A7ADBE" d="M21.796 10.184c4.785-2.685 11.623-.482 15.27 4.92 3.651 5.4 2.732 11.955-2.053 14.641 4.068-2.282 4.847-7.855 1.744-12.445-3.1-4.59-8.915-6.464-12.98-4.182-4.068 2.282-4.847 7.856-1.743 12.448 3.103 4.593 8.915 6.464 12.983 4.18-4.786 2.685-11.624.485-15.272-4.92-3.65-5.4-2.731-11.959 2.054-14.642h-.003z"/><path fill="#575F75" d="M28.517 9.97c5.072.319 9.717 4.726 10.372 9.843.652 5.118-2.93 9.006-8.003 8.69 4.313.27 7.357-3.035 6.803-7.386-.557-4.352-4.501-8.097-8.814-8.367-4.312-.271-7.36 3.034-6.802 7.386.557 4.351 4.504 8.097 8.814 8.367-5.073-.32-9.714-4.726-10.37-9.844-.654-5.117 2.928-9.006 8.003-8.69h-.003z"/><path fill="#6D7792" d="M33.84 12.039c4.012 2.409 5.906 7.308 4.234 10.94-1.676 3.63-6.285 4.621-10.297 2.212 3.413 2.047 7.33 1.207 8.752-1.88 1.424-3.087-.19-7.25-3.599-9.3-3.413-2.047-7.33-1.206-8.752 1.88-1.424 3.088.186 7.25 3.599 9.297-4.013-2.409-5.907-7.308-4.231-10.939 1.675-3.631 6.284-4.622 10.297-2.213l-.003.003z"/></g><path fill="#575F75" d="M102.523 28.008c-.723 0-1.334-.136-1.834-.408a2.89 2.89 0 0 1-1.14-1.102 3.062 3.062 0 0 1-.38-1.51c0-.481.081-.914.242-1.296.16-.39.407-.723.741-1 .333-.285.765-.516 1.296-.695.402-.13.871-.247 1.408-.352.543-.105 1.13-.2 1.76-.287.636-.093 1.3-.192 1.991-.297l-.796.454c.006-.691-.149-1.2-.464-1.528-.314-.327-.845-.49-1.593-.49-.45 0-.886.104-1.305.314-.42.21-.714.571-.88 1.084l-2.038-.64a3.784 3.784 0 0 1 1.408-2.037c.698-.512 1.636-.769 2.815-.769.89 0 1.671.145 2.344.435.679.29 1.182.766 1.509 1.427.179.352.287.713.325 1.083.037.365.055.763.055 1.195v6.14h-1.954v-2.166l.324.351c-.451.723-.979 1.254-1.584 1.593-.599.334-1.349.5-2.25.5zm.444-1.779c.507 0 .939-.09 1.297-.268.358-.18.642-.398.852-.658.216-.26.361-.503.435-.732.118-.284.182-.608.195-.972.018-.37.028-.67.028-.898l.685.203c-.673.105-1.25.198-1.732.278-.482.08-.895.158-1.241.232a7.875 7.875 0 0 0-.917.231 2.842 2.842 0 0 0-.658.325 1.424 1.424 0 0 0-.416.425c-.093.161-.139.35-.139.566 0 .247.061.466.185.657.123.185.302.334.537.445.241.11.537.166.889.166zm-7.918 1.501v-4.817a9.4 9.4 0 0 0-.065-1.046 3.618 3.618 0 0 0-.306-1.103 2.09 2.09 0 0 0-.703-.88c-.31-.228-.73-.342-1.26-.342a2.65 2.65 0 0 0-.843.139 1.934 1.934 0 0 0-.76.481c-.222.223-.4.531-.537.927-.135.389-.203.889-.203 1.5l-1.325-.565c0-.852.164-1.624.491-2.315a3.94 3.94 0 0 1 1.463-1.649c.643-.414 1.433-.62 2.371-.62.741 0 1.353.123 1.834.37a3.24 3.24 0 0 1 1.149.945c.284.382.494.79.63 1.222.135.432.222.843.259 1.232.043.383.065.695.065.935v5.585h-2.26zm-6.937 0V17.726h1.991v3.102h.269v6.9h-2.26zm-4.988-11.522v-2.047h2.232v2.047h-2.232zm0 11.522V17.727h2.232V27.73h-2.232zm-4.834 0v-6.076c0-.686-.169-1.22-.509-1.603-.34-.389-.8-.583-1.38-.583-.358 0-.679.083-.963.25-.284.16-.51.401-.676.722-.167.315-.25.692-.25 1.13l-.991-.583c-.006-.692.148-1.3.463-1.825a3.383 3.383 0 0 1 1.297-1.24 3.73 3.73 0 0 1 1.815-.445c1.105 0 1.951.333 2.538 1 .593.66.889 1.531.889 2.612v6.64H78.29zm-12.03 0V17.726h1.972v3.102h.278v6.9h-2.25zm6.03 0v-6.05c0-.697-.17-1.24-.51-1.63-.34-.389-.803-.583-1.39-.583-.568 0-1.025.194-1.37.583-.34.39-.51.896-.51 1.52l-1-.668c0-.648.16-1.231.482-1.75a3.429 3.429 0 0 1 1.296-1.223 3.756 3.756 0 0 1 1.843-.453c.748 0 1.371.16 1.871.481a2.88 2.88 0 0 1 1.13 1.297c.253.543.38 1.158.38 1.843v6.631h-2.223zm-13.856.286c-.74 0-1.352-.123-1.834-.37a3.24 3.24 0 0 1-1.148-.945 4.112 4.112 0 0 1-.63-1.222 6.545 6.545 0 0 1-.268-1.223 10.43 10.43 0 0 1-.056-.945v-5.584h2.26v4.816c0 .308.021.657.065 1.046.043.383.142.754.296 1.112.16.352.395.642.704.87.315.229.738.343 1.269.343.284 0 .565-.046.843-.139.277-.093.528-.25.75-.472.228-.229.41-.54.546-.936.136-.395.204-.895.204-1.5l1.325.565c0 .852-.167 1.624-.5 2.315a3.94 3.94 0 0 1-1.455 1.658c-.642.408-1.432.611-2.37.611zm3.27-.287v-3.102h-.269v-6.9h2.241v10.002h-1.972zm-16.712.001V14.393h2.232v11.243h5.89v2.094h-8.122z"/><defs><clipPath id="a"><path fill="#fff" d="M12.222 6.667h27.081v26.667H12.222z"/></clipPath></defs></svg>