<svg xmlns="http://www.w3.org/2000/svg" width="120" height="40" fill="none"><g clip-path="url(#a)"><path fill="#6D7792" d="M15.556 19.993c0 3.681 1.532 7.227 4.226 9.754.819-1.387 1.084-3.132.602-4.896-.665-2.444-2.586-4.256-4.828-4.858z"/><path fill="#575F75" d="M16.243 15.797a13.298 13.298 0 0 0-.635 3.023c3.105.31 5.74 3.886 6.046 8.423a12.09 12.09 0 0 1-.321 3.74c.699.483 1.454.897 2.26 1.249.427-2.115.412-4.455-.134-6.816-1.065-4.616-3.886-8.154-7.216-9.623v.004zm14.38-2.217c3.37.759 6.674.258 9.234-1.158a13.014 13.014 0 0 0-1.633-1.94c-2.317 1.865-6.211 2.246-9.937.695-1.943-.807-3.546-2.021-4.682-3.415-.355.153-.706.321-1.046.508 1.681 2.519 4.544 4.518 8.064 5.31zm11.454 8.397a13.47 13.47 0 0 0 .145-2.186c-2.784.878-5.422 2.922-7.197 5.886-1.349 2.253-1.995 4.693-1.992 6.995.314-.1.62-.213.927-.336.276-2.097 1.386-4.496 3.232-6.633 1.484-1.72 3.207-2.99 4.885-3.722v-.004z"/><path fill="#A7ADBE" d="M40.922 14.268c-3.76 1.719-9.51 1.55-15.21-.819-2.174-.904-4.125-2.04-5.788-3.314a13.147 13.147 0 0 0-2.743 3.494c4.305 1.812 7.825 8.471 8.375 16.625.06.908.082 1.802.067 2.676a13.2 13.2 0 0 0 5.49.217c.268-3.752 2.193-8.18 5.575-12.093 1.573-1.82 3.3-3.34 5.067-4.533a13.155 13.155 0 0 0-.833-2.253zM29.308 24.802c-5.36 0-5.352-8.314 0-8.314 5.35 0 5.35 8.314 0 8.314z"/><path fill="#6D7792" d="M31.247 11.04c2.13.392 4.279-.21 5.938-1.473a13.258 13.258 0 0 0-3.18-1.876 13.27 13.27 0 0 0-7.728-.762c.77 2.066 2.57 3.67 4.97 4.11zm10.097 13.706c-1.958.31-3.898 1.618-5.135 3.677a8.158 8.158 0 0 0-1.132 3.386 13.276 13.276 0 0 0 6.121-6.69c.053-.122.097-.25.146-.373z"/></g><path fill="#575F75" d="m94.882 26.71 3.67-5.072-3.596-4.96h2.638l2.258 3.205 2.22-3.205h2.638l-3.595 4.96 3.688 5.072h-2.638l-2.313-3.316-2.332 3.316h-2.638zm-5.138.28c-1.016 0-1.907-.22-2.675-.66a4.697 4.697 0 0 1-1.803-1.83c-.427-.78-.64-1.678-.64-2.694 0-1.096.21-2.047.631-2.852a4.614 4.614 0 0 1 1.756-1.886c.75-.446 1.616-.669 2.6-.669 1.041 0 1.924.245 2.648.734.731.483 1.273 1.168 1.626 2.053.353.886.486 1.93.4 3.13h-2.22V21.5c-.007-1.09-.199-1.885-.577-2.387-.377-.502-.972-.752-1.783-.752-.917 0-1.598.284-2.044.854-.446.564-.669 1.39-.669 2.48 0 1.016.223 1.803.67 2.36.445.557 1.095.836 1.95.836.551 0 1.025-.12 1.421-.362.403-.248.712-.604.93-1.069l2.21.67c-.384.903-.978 1.606-1.784 2.108a4.88 4.88 0 0 1-2.647.752zm-3.456-4.673v-1.69h6.902v1.69h-6.902zm-2.754 4.394a9.143 9.143 0 0 1-1.951.158c-.632-.012-1.199-.127-1.7-.344a2.356 2.356 0 0 1-1.143-1.05 2.991 2.991 0 0 1-.362-1.328 56.462 56.462 0 0 1-.019-1.533v-8.722h2.23v8.592c0 .403.003.756.01 1.06.011.303.076.55.194.742.223.372.58.58 1.069.623a7.243 7.243 0 0 0 1.672-.074v1.876zm-6.995-8.277v-1.756h6.995v1.756h-6.995zm-6.307 8.277V16.68h1.98v2.443l-.242-.316c.123-.335.287-.638.492-.91a2.74 2.74 0 0 1 .752-.688 3.11 3.11 0 0 1 .818-.39c.303-.1.613-.158.929-.177.316-.024.622-.012.92.038v2.09a2.87 2.87 0 0 0-1.032-.084c-.384.03-.73.14-1.04.325-.31.167-.564.381-.762.641a2.71 2.71 0 0 0-.427.892 3.91 3.91 0 0 0-.14 1.068v5.1h-2.248zm-7.053.279c-1.003 0-1.88-.227-2.629-.679a4.658 4.658 0 0 1-1.746-1.867c-.41-.799-.614-1.715-.614-2.75 0-1.052.211-1.975.632-2.768a4.658 4.658 0 0 1 1.756-1.858c.75-.446 1.616-.669 2.6-.669 1.01 0 1.89.226 2.64.678a4.643 4.643 0 0 1 1.746 1.877c.415.793.622 1.706.622 2.74 0 1.04-.21 1.96-.632 2.76a4.657 4.657 0 0 1-1.746 1.867c-.75.445-1.626.668-2.63.668zm0-2.1c.892 0 1.554-.297 1.988-.892.433-.594.65-1.362.65-2.304 0-.972-.22-1.746-.66-2.322-.44-.582-1.099-.873-1.978-.873-.6 0-1.096.136-1.486.409-.384.266-.67.64-.855 1.124-.186.477-.279 1.03-.279 1.662 0 .973.22 1.75.66 2.332.446.576 1.1.864 1.96.864zm-12.217 1.82-4.217-13.376h2.303l3.53 11.203 3.577-11.203h2.304L54.24 26.711h-3.279z"/><defs><clipPath id="a"><path fill="#fff" d="M15.556 6.667h26.667v26.667H15.556z"/></clipPath></defs></svg>