<svg xmlns="http://www.w3.org/2000/svg" width="120" height="40" fill="none"><g fill="#575F75" clip-path="url(#a)"><path d="M26.368 26.388zM40.414 20a13.39 13.39 0 0 0-6.066-5.463 13.13 13.13 0 0 0-2.82-.902l.005.003c.001 0 .001.002.003.002.087.057.174.117.258.178.073.05.146.104.219.157.117.085.23.173.346.264.008.004.016.012.024.017l.186.149.032.027.01.007a13.07 13.07 0 0 1 1.645 1.61c.067.077.131.155.196.232.009.01.017.022.026.031.052.063.102.124.15.187.024.031.05.063.071.094a4.575 4.575 0 0 1 .18.235c.056.076.109.15.162.226l.044.063c.003.003.005.01.01.012l.149.222.004.008.032.161a4.944 4.944 0 0 0-.03-.158 17.93 17.93 0 0 1 .397.635c.052.088.102.174.149.263l.016.027c.034.061.065.12.097.182.05.091.095.182.142.274.052.104.104.206.151.31.011.023.022.043.031.067a13.878 13.878 0 0 1 .37.883 13.369 13.369 0 0 1 .427 8.147 13.243 13.243 0 0 1-2.649 5.13 13.31 13.31 0 0 0 6.665-1.109 13.282 13.282 0 0 0 1.113-6.669 13.223 13.223 0 0 0-1.753-5.5l.008-.002zm-23.051 0a13.389 13.389 0 0 0 6.428 5.618c.007.003.012.005.018.01.08.03.159.064.239.095l.015.005c.107.04.212.081.319.119h.001c.057.022.117.042.175.061.078.028.156.053.235.08l.031.01c.097.031.198.062.297.09l.072.023h.001c.107.03.21.06.319.087.06.016.119.032.178.046l.184.042c.12.028.243.054.366.079a13.248 13.248 0 0 1-2.043-1.675 13.375 13.375 0 0 1-1.678-2.048 13.108 13.108 0 0 1-1.358-2.64 13.373 13.373 0 0 1-.425-8.151 13.189 13.189 0 0 1 2.649-5.13 13.24 13.24 0 0 0-6.663 1.112 13.242 13.242 0 0 0-1.167 5.461 13.283 13.283 0 0 0 1.805 6.708l.002-.002z"/><path d="M24.203 15.314a13.348 13.348 0 0 1 2.044-1.678 13.108 13.108 0 0 1 2.64-1.358 13.383 13.383 0 0 1 8.151-.427 13.225 13.225 0 0 1 5.13 2.65c.037-.398.054-.8.054-1.207 0-1.947-.417-3.797-1.168-5.463a13.308 13.308 0 0 0-6.665-1.11 13.155 13.155 0 0 0-5.5 1.755 13.368 13.368 0 0 0-5.464 6.063c-.402.895-.709 1.84-.905 2.827a13.361 13.361 0 0 1 1.681-2.052h.002zm10.451 9.407c.036-.09.069-.183.103-.276a.09.09 0 0 1 .01-.026l.014-.044c.031-.085.061-.17.088-.256a7.41 7.41 0 0 0 .096-.309c.017-.055.034-.11.048-.165l.011-.039a9.685 9.685 0 0 0 .148-.574l.01-.044a7.52 7.52 0 0 0 .073-.343l-.003.004c0 .002-.002.002-.002.003-.008.01-.013.02-.019.029a6.087 6.087 0 0 1-.16.23c-.061.09-.124.176-.186.262l-.011.013-.159.211c-.063.079-.122.156-.185.233-.042.053-.088.106-.132.158-.001.003-.004.005-.008.01l-.015.017a13.103 13.103 0 0 1-1.536 1.556c-.038.031-.072.064-.111.094a6.392 6.392 0 0 0-.112.094c-.003.001-.004.005-.009.008l-.031.026-.187.15c-.008.004-.016.012-.024.017l-.172.133a13.115 13.115 0 0 1-.623.447c-.01.008-.019.012-.028.019l-.003.001-.005.003-.01.008c-.087.057-.175.115-.264.171-.032.022-.066.041-.1.063-.013.01-.026.016-.04.025-.056.036-.116.07-.174.104-.025.017-.052.031-.077.045-.099.058-.198.116-.296.17-.088.05-.176.095-.265.142a3.264 3.264 0 0 1-.23.114c-.009.005-.017.01-.025.013a5.743 5.743 0 0 1-.712.325c-.069.028-.138.058-.208.088-.002 0-.005 0-.008.002l-.235.092a13.396 13.396 0 0 1-8.149.427 13.244 13.244 0 0 1-5.127-2.653 13.25 13.25 0 0 0 1.112 6.67 13.276 13.276 0 0 0 6.666 1.112 13.238 13.238 0 0 0 5.5-1.754 13.383 13.383 0 0 0 5.767-6.806h-.005z"/></g><path fill="#575F75" d="M99.52 27.223c-1.012 0-1.9-.22-2.666-.658a4.682 4.682 0 0 1-1.796-1.824c-.426-.778-.64-1.673-.64-2.685 0-1.093.21-2.04.63-2.843a4.598 4.598 0 0 1 1.75-1.88c.748-.444 1.612-.666 2.593-.666 1.037 0 1.917.244 2.639.731.728.482 1.269 1.164 1.62 2.047.352.883.485 1.923.399 3.12h-2.213v-.815c-.007-1.086-.198-1.88-.574-2.38-.377-.5-.97-.75-1.778-.75-.914 0-1.593.285-2.037.852-.445.562-.667 1.386-.667 2.473 0 1.012.222 1.796.667 2.352.444.555 1.092.833 1.944.833.55 0 1.022-.12 1.417-.361a2.41 2.41 0 0 0 .926-1.065l2.203.667a4.464 4.464 0 0 1-1.777 2.102c-.797.5-1.676.75-2.64.75zm-3.444-4.658V20.88h6.88v1.685h-6.88zm-8.272 4.38-3.63-10h2.232l2.518 7.25 2.51-7.25h2.24l-3.63 10h-2.24zm-7.709 0V13.334h2.232v13.611h-2.232zm-7.215.278c-1 0-1.874-.226-2.62-.676a4.643 4.643 0 0 1-1.742-1.861c-.407-.797-.61-1.71-.61-2.741 0-1.05.21-1.97.629-2.76a4.641 4.641 0 0 1 1.75-1.851c.747-.445 1.611-.667 2.592-.667 1.007 0 1.883.225 2.63.676a4.628 4.628 0 0 1 1.74 1.87c.414.79.621 1.7.621 2.732 0 1.037-.21 1.953-.63 2.75a4.643 4.643 0 0 1-1.74 1.86c-.747.445-1.62.668-2.62.668zm0-2.093c.888 0 1.549-.296 1.98-.889.433-.593.65-1.358.65-2.296 0-.97-.22-1.741-.658-2.315-.439-.58-1.096-.87-1.973-.87-.598 0-1.092.135-1.481.407-.383.265-.667.639-.852 1.12-.185.476-.278 1.028-.278 1.658 0 .969.22 1.744.658 2.324.444.574 1.095.861 1.953.861zm-11.588 1.815-3.63-10h2.232l2.519 7.25 2.509-7.25h2.24l-3.629 10h-2.24zm-13.536 0V13.61h8.611v2.093h-6.38v3.287h5.269v2.093h-5.269v3.768h6.38v2.093h-8.611z"/><defs><clipPath id="a"><path fill="#fff" d="M15.556 6.667h26.667v26.667H15.556z"/></clipPath></defs></svg>