<svg xmlns="http://www.w3.org/2000/svg" width="120" height="40" fill="none"><g fill-rule="evenodd" clip-path="url(#a)" clip-rule="evenodd"><path fill="#6D7792" d="M13.364 28.836c-6.517-5.773-5.653-15.144.882-19.787 4.591-3.26 11.58-3.66 16.03 1.896 3.154 3.938 3.37 9.6 1.372 13.018-1.253 2.134-4.128 3.713-5.887 1.605-1.601-1.914.185-3.612.811-5.847 2.236-8.013-8.855-13.689-14.698-5.98-2.981 3.933-2.814 9.997 1.49 15.095z"/><path fill="#575F75" d="M33.81 11.354c6.385 5.923 5.304 15.272-1.337 19.761-4.666 3.153-11.66 3.392-15.982-2.262-3.064-4.013-3.148-9.68-1.071-13.049 1.3-2.103 4.211-3.62 5.927-1.468 1.556 1.949-.274 3.607-.948 5.825-2.417 7.964 8.537 13.896 14.557 6.32 3.069-3.864 3.042-9.936-1.143-15.127h-.004z"/></g><path fill="#575F75" d="m104.016 30.334 1.813-4.978.035 1.465-4.106-10.087h2.188l2.912 7.463h-.558l2.833-7.463h2.101l-5.248 13.6h-1.97zm-3.008-4.185a8.567 8.567 0 0 1-1.83.148 4.196 4.196 0 0 1-1.596-.322 2.211 2.211 0 0 1-1.072-.986 2.808 2.808 0 0 1-.34-1.246 53.161 53.161 0 0 1-.017-1.439v-8.186h2.092v8.064c0 .378.003.71.009.994.011.285.072.517.183.698.209.348.543.543 1.002.584.46.04.982.017 1.569-.07v1.76zm-6.564-7.768v-1.648h6.564v1.648h-6.564zm-3.667-3.076v-1.927h2.101v1.927h-2.1zm0 10.845v-9.416h2.101v9.416h-2.1zm-5.859.261c-.97 0-1.799-.215-2.485-.645a4.295 4.295 0 0 1-1.578-1.778c-.36-.75-.543-1.599-.549-2.546.006-.965.195-1.82.567-2.563a4.277 4.277 0 0 1 1.604-1.761c.691-.43 1.514-.645 2.467-.645 1.07 0 1.973.27 2.711.81.744.535 1.23 1.267 1.456 2.197l-2.092.567c-.163-.506-.433-.898-.81-1.177a2.087 2.087 0 0 0-1.291-.427c-.546 0-.997.13-1.351.392-.355.256-.616.61-.785 1.064a4.405 4.405 0 0 0-.253 1.543c0 .895.2 1.619.602 2.17.4.553.996.829 1.787.829.558 0 .997-.128 1.316-.384.326-.255.57-.624.733-1.107l2.144.48c-.29.959-.799 1.697-1.525 2.214-.727.511-1.616.767-2.668.767zm-10.708 0c-.942 0-1.764-.212-2.467-.636a4.371 4.371 0 0 1-1.64-1.753c-.383-.75-.575-1.61-.575-2.58 0-.988.198-1.854.593-2.598A4.373 4.373 0 0 1 71.77 17.1c.703-.418 1.517-.627 2.44-.627.948 0 1.773.212 2.477.636a4.357 4.357 0 0 1 1.639 1.761c.39.744.584 1.601.584 2.572 0 .976-.198 1.84-.593 2.59a4.37 4.37 0 0 1-1.639 1.751c-.703.419-1.526.628-2.467.628zm0-1.97c.837 0 1.459-.28 1.866-.837.406-.558.61-1.279.61-2.162 0-.913-.207-1.64-.62-2.18-.412-.546-1.03-.82-1.856-.82-.564 0-1.029.129-1.395.384a2.21 2.21 0 0 0-.802 1.055c-.174.448-.262.968-.262 1.56 0 .913.207 1.643.62 2.19.418.54 1.031.81 1.839.81zm-8.871 1.709V13.333h2.1v12.815h-2.1zm-6.383.261c-.953 0-1.79-.206-2.51-.619a4.407 4.407 0 0 1-1.692-1.717c-.401-.733-.602-1.575-.602-2.528 0-1.03.198-1.921.593-2.677a4.33 4.33 0 0 1 1.648-1.77c.703-.418 1.517-.627 2.44-.627.977 0 1.806.23 2.486.688.685.454 1.194 1.096 1.525 1.927.331.831.456 1.81.375 2.938h-2.084v-.767c-.005-1.023-.186-1.77-.54-2.24-.355-.471-.913-.707-1.674-.707-.86 0-1.5.267-1.918.802-.418.53-.628 1.305-.628 2.328 0 .953.21 1.691.628 2.214.419.523 1.029.785 1.83.785.518 0 .963-.113 1.335-.34.377-.233.668-.567.871-1.003l2.075.628a4.206 4.206 0 0 1-1.673 1.979 4.58 4.58 0 0 1-2.485.706zm-3.243-4.385v-1.587h6.477v1.587h-6.477zM47.37 26.15l-3.96-12.555h2.162l3.313 10.514 3.356-10.514h2.163l-3.959 12.553H47.37z"/><defs><clipPath id="a"><path fill="#fff" d="M8.889 6.667h29.18v26.667H8.889z"/></clipPath></defs></svg>