<svg xmlns="http://www.w3.org/2000/svg" width="120" height="40" fill="none"><g clip-path="url(#a)"><path fill="#575F75" d="M12.222 28.569v4.764l16.306-7.287V21.28l-16.307 7.29z"/><path fill="#6D7792" d="M12.222 11.431V6.667l16.306 7.287v4.765L12.221 11.43z"/><path fill="#A7ADBE" d="M12.222 18.721v-4.764l16.306 7.287v4.767l-16.306-7.29z"/></g><path fill="#575F75" d="m100.288 29.55 1.969-5.405.038 1.59-4.459-10.95h2.376l3.162 8.101h-.606l3.076-8.102h2.281l-5.698 14.766h-2.139zm-8.712.284a5.088 5.088 0 0 1-1.637-.265 4.586 4.586 0 0 1-1.401-.767 4.042 4.042 0 0 1-1.022-1.193l2.1-1.041c.196.372.47.647.824.823.36.184.742.275 1.145.275.474 0 .897-.085 1.269-.256.372-.164.66-.41.861-.738.208-.322.306-.726.294-1.211v-2.906h.284v-7.771h1.997v10.714c0 .26-.013.505-.038.739a5.29 5.29 0 0 1-.104.7c-.152.663-.442 1.205-.871 1.628a3.96 3.96 0 0 1-1.6.956 6.678 6.678 0 0 1-2.101.313zm-.199-4.544c-.94 0-1.76-.236-2.46-.71-.701-.473-1.244-1.116-1.629-1.93-.385-.814-.577-1.733-.577-2.755 0-1.035.192-1.956.577-2.764.392-.814.944-1.454 1.657-1.921.713-.473 1.552-.71 2.517-.71.972 0 1.786.237 2.442.71.663.467 1.165 1.107 1.505 1.921.341.814.511 1.736.511 2.764 0 1.016-.17 1.934-.51 2.755-.341.814-.85 1.457-1.525 1.93-.675.474-1.51.71-2.508.71zm.35-2.044c.612 0 1.105-.139 1.477-.417.379-.284.653-.678.824-1.183.176-.505.264-1.088.264-1.75 0-.67-.088-1.253-.264-1.752-.17-.505-.44-.896-.805-1.174-.366-.284-.84-.425-1.42-.425-.612 0-1.117.15-1.514.454-.398.296-.691.7-.88 1.211a4.767 4.767 0 0 0-.285 1.685c0 .625.092 1.193.275 1.704.19.505.476.905.861 1.202.385.297.874.445 1.468.445zm-11.639 1.76V14.784h2.016v2.49l-.246-.323c.126-.34.293-.65.501-.927.215-.284.47-.518.767-.7.253-.171.53-.303.833-.398.31-.101.625-.161.947-.18.322-.025.634-.013.937.038v2.13a2.928 2.928 0 0 0-1.05-.086 2.407 2.407 0 0 0-1.061.332c-.316.17-.574.388-.776.653a2.78 2.78 0 0 0-.436.908 3.986 3.986 0 0 0-.141 1.089v5.196h-2.291zm-6.74.284c-1.035 0-1.944-.224-2.726-.672a4.785 4.785 0 0 1-1.837-1.864c-.435-.796-.653-1.71-.653-2.745 0-1.117.215-2.086.644-2.906a4.7 4.7 0 0 1 1.789-1.922c.763-.454 1.647-.681 2.65-.681 1.06 0 1.96.25 2.698.748.744.492 1.296 1.19 1.656 2.092.36.902.495 1.965.407 3.19h-2.262v-.834c-.006-1.11-.202-1.921-.587-2.432-.385-.511-.99-.767-1.817-.767-.934 0-1.628.29-2.083.87-.454.575-.681 1.418-.681 2.528 0 1.035.227 1.836.681 2.404.455.568 1.117.852 1.988.852.562 0 1.044-.123 1.448-.369.41-.252.726-.615.947-1.088l2.252.681a4.561 4.561 0 0 1-1.817 2.149 4.972 4.972 0 0 1-2.697.766zm-3.521-4.76v-1.723h7.032v1.722h-7.032zm-5.74 4.476v-4.922c0-.322-.022-.678-.066-1.07a3.697 3.697 0 0 0-.313-1.126 2.135 2.135 0 0 0-.719-.899c-.316-.233-.745-.35-1.287-.35-.29 0-.578.047-.862.142a1.975 1.975 0 0 0-.776.492c-.227.227-.41.543-.549.947-.139.397-.208.908-.208 1.533l-1.354-.578c0-.87.168-1.66.502-2.366.34-.707.84-1.268 1.496-1.685.656-.422 1.464-.634 2.423-.634.757 0 1.382.126 1.874.379a3.31 3.31 0 0 1 1.173.965c.29.392.505.808.644 1.25.139.441.227.861.265 1.259.044.39.066.71.066.956v5.707h-2.31zm-7.09 0V14.784h2.036v3.17h.274v7.052h-2.31zm-9.229 4.544 1.969-5.405.038 1.59-4.459-10.95h2.376l3.161 8.101h-.605l3.076-8.102h2.281L49.907 29.55h-2.14zm-8.556-4.26c-.997 0-1.896-.173-2.698-.52a5.095 5.095 0 0 1-1.968-1.486c-.511-.65-.836-1.42-.975-2.31l2.366-.36c.202.808.615 1.433 1.24 1.875.631.441 1.357.662 2.177.662.486 0 .943-.076 1.372-.227.43-.151.777-.372 1.042-.663.27-.29.407-.646.407-1.07 0-.188-.032-.362-.095-.52a1.238 1.238 0 0 0-.284-.435 1.755 1.755 0 0 0-.473-.34 3.216 3.216 0 0 0-.663-.275l-3.52-1.041a9.92 9.92 0 0 1-.985-.35 4.24 4.24 0 0 1-.994-.616c-.31-.265-.565-.6-.767-1.003-.195-.41-.293-.915-.293-1.515 0-.877.22-1.612.662-2.205.448-.6 1.048-1.047 1.799-1.344.757-.297 1.596-.442 2.518-.436.933.007 1.766.168 2.498.483.732.31 1.344.76 1.836 1.354.493.593.84 1.31 1.042 2.148l-2.452.426a2.66 2.66 0 0 0-.587-1.22 2.74 2.74 0 0 0-1.05-.777 3.537 3.537 0 0 0-2.584-.076c-.385.14-.697.341-.937.606a1.36 1.36 0 0 0-.35.928c0 .334.1.609.302.823.202.209.452.376.748.502.303.12.61.22.918.303l2.442.681c.335.089.71.208 1.127.36.416.151.817.363 1.202.634s.7.628.946 1.07c.253.441.379 1.003.379 1.684 0 .707-.149 1.329-.445 1.865-.29.53-.685.972-1.183 1.325a5.41 5.41 0 0 1-1.713.795 7.481 7.481 0 0 1-2.007.265z"/><defs><clipPath id="a"><path fill="#fff" d="M12.222 6.667h16.305v26.667H12.222z"/></clipPath></defs></svg>