<svg xmlns="http://www.w3.org/2000/svg" width="32" height="32" fill="none"><path fill="url(#a)" fill-rule="evenodd" d="M6.93 4.399c.804-1.732 3.56-1.732 9.07-1.732s8.266 0 9.069 1.732c.069.149.127.303.174.462.545 1.85-1.403 3.994-5.3 8.281L17.333 16l2.61 2.858c3.897 4.287 5.845 6.43 5.3 8.28a3.35 3.35 0 0 1-.174.463c-.803 1.732-3.558 1.732-9.07 1.732-5.51 0-8.265 0-9.068-1.732a3.358 3.358 0 0 1-.174-.463c-.546-1.85 1.403-3.993 5.3-8.28L14.666 16l-2.61-2.858c-3.897-4.287-5.846-6.431-5.3-8.28a3.36 3.36 0 0 1 .174-.463zm6.403 19.267a1 1 0 1 0 0 2h5.333a1 1 0 1 0 0-2h-5.333zm-1-16.333a1 1 0 0 1 1-1h5.333a1 1 0 1 1 0 2h-5.333a1 1 0 0 1-1-1z" clip-rule="evenodd"/><defs><linearGradient id="a" x1="16" x2="16" y1="2.667" y2="29.333" gradientUnits="userSpaceOnUse"><stop offset=".174" stop-color="#003CFF"/><stop offset=".532" stop-color="#3363FF"/><stop offset="1" stop-color="#668AFF"/></linearGradient></defs></svg>