<svg xmlns="http://www.w3.org/2000/svg" width="32" height="32" fill="none"><path fill="url(#a)" d="M12.204 7.211c1.689-3.03 2.533-4.545 3.796-4.545 1.262 0 2.107 1.515 3.796 4.545l.437.784c.48.86.72 1.291 1.094 1.575.374.284.84.39 1.772.6l.848.193c3.28.742 4.92 1.113 5.31 2.367.39 1.255-.728 2.562-2.964 5.176l-.578.677c-.636.743-.953 1.114-1.096 1.574-.143.46-.095.955 0 1.946l.088.903c.338 3.488.507 5.232-.514 6.008-1.021.775-2.557.068-5.627-1.346l-.795-.366C16.9 26.901 16.462 26.7 16 26.7c-.463 0-.899.2-1.771.602l-.795.366c-3.07 1.414-4.606 2.12-5.627 1.346-1.022-.776-.853-2.52-.515-6.008l.088-.903c.096-.991.144-1.487.001-1.946-.143-.46-.46-.831-1.096-1.574l-.578-.677c-2.236-2.614-3.354-3.921-2.964-5.176.39-1.254 2.03-1.625 5.31-2.367l.848-.192c.932-.211 1.398-.317 1.772-.6.374-.285.614-.715 1.094-1.576l.437-.784z"/><defs><linearGradient id="a" x1="16" x2="16" y1="2.667" y2="29.333" gradientUnits="userSpaceOnUse"><stop offset=".174" stop-color="#003CFF"/><stop offset=".532" stop-color="#3363FF"/><stop offset="1" stop-color="#668AFF"/></linearGradient></defs></svg>